{
  "source": "C:\\Users\\Peter\\Desktop\\stuff\\MIUN\\quantitative_research\\video_compression\\videos\\BVI-HD\\RockWater_1920x1080_30fps.mp4",
  "output": "C:\\Users\\Peter\\Desktop\\stuff\\MIUN\\quantitative_research\\video_compression\\compressed_videos\\BVI-HD\\vp9\\1.5\\RockWater_1920x1080_30fps_vp9.webm",
  "codec": "vp9",
  "ok": "Input #0, mov,mp4,m4a,3gp,3g2,mj2, from 'C:\\Users\\Peter\\Desktop\\stuff\\MIUN\\quantitative_research\\video_compression\\videos\\BVI-HD\\RockWater_1920x1080_30fps.mp4':\n  Metadata:\n    major_brand     : isom\n    minor_version   : 512\n    compatible_brands: isomiso2avc1mp41\n    encoder         : Lavf54.28.101\n  Duration: 00:00:05.00, start: 0.000000, bitrate: 245943 kb/s\n  Stream #0:0[0x1](und): Video: h264 (High 4:4:4 Predictive) (avc1 / 0x31637661), yuv420p(progressive), 1920x1080, 245940 kb/s, 30 fps, 30 tbr, 30 tbn (default)\n    Metadata:\n      handler_name    : VideoHandler\n      vendor_id       : [0][0][0][0]\n[out#0/webm @ 000001cc48d30b00] Codec AVOption b:a (set bitrate (in bits/s)) has not been used for any stream. The most likely reason is either wrong type (e.g. a video option with no video streams) or that it is a private option of some decoder which was not actually used for any stream.\nStream mapping:\n  Stream #0:0 -> #0:0 (h264 (native) -> vp9 (libvpx-vp9))\nPress [q] to stop, [?] for help\n[libvpx-vp9 @ 000001cc495e4600] v1.15.2-100-g40561f514\nOutput #0, webm, to 'C:\\Users\\Peter\\Desktop\\stuff\\MIUN\\quantitative_research\\video_compression\\compressed_videos\\BVI-HD\\vp9\\1.5\\RockWater_1920x1080_30fps_vp9.webm':\n  Metadata:\n    major_brand     : isom\n    minor_version   : 512\n    compatible_brands: isomiso2avc1mp41\n    encoder         : Lavf62.3.100\n  Stream #0:0(und): Video: vp9, yuv420p(tv, progressive), 1920x1080, q=2-31, 1500 kb/s, 30 fps, 1k tbn (default)\n    Metadata:\n      encoder         : Lavc62.11.100 libvpx-vp9\n      handler_name    : VideoHandler\n      vendor_id       : [0][0][0][0]\n    Side data:\n      cpb: bitrate max/min/avg: 0/0/0 buffer size: 1500000 vbv_delay: N/A\nframe=    0 fps=0.0 q=0.0 size=       0KiB time=N/A bitrate=N/A speed=N/A elapsed=0:00:00.52    \nframe=    6 fps=5.6 q=63.0 size=       1KiB time=00:00:00.20 bitrate=  25.4kbits/s speed=0.187x elapsed=0:00:01.07    \nframe=   10 fps=6.3 q=62.0 size=       1KiB time=00:00:00.33 bitrate=  15.2kbits/s speed=0.211x elapsed=0:00:01.57    \nframe=   16 fps=7.6 q=63.0 size=       1KiB time=00:00:00.53 bitrate=   9.5kbits/s speed=0.254x elapsed=0:00:02.09    \nframe=   21 fps=8.1 q=44.0 size=       1KiB time=00:00:00.70 bitrate=   7.2kbits/s speed=0.269x elapsed=0:00:02.60    \nframe=   26 fps=8.3 q=63.0 size=       1KiB time=00:00:00.86 bitrate=   5.9kbits/s speed=0.278x elapsed=0:00:03.12    \nframe=   31 fps=8.4 q=43.0 size=       1KiB time=00:00:01.03 bitrate=   4.9kbits/s speed=0.281x elapsed=0:00:03.68    \nframe=   36 fps=8.6 q=61.0 size=       1KiB time=00:00:01.20 bitrate=   4.2kbits/s speed=0.287x elapsed=0:00:04.18    \nframe=   41 fps=8.7 q=50.0 size=       1KiB time=00:00:01.36 bitrate=   3.7kbits/s speed=0.29x elapsed=0:00:04.71    \nframe=   46 fps=8.8 q=61.0 size=       1KiB time=00:00:01.53 bitrate=   3.3kbits/s speed=0.293x elapsed=0:00:05.22    \nframe=   50 fps=8.7 q=60.0 size=       1KiB time=00:00:01.66 bitrate=   3.0kbits/s speed=0.291x elapsed=0:00:05.73    \nframe=   55 fps=8.8 q=60.0 size=       1KiB time=00:00:01.83 bitrate=   2.8kbits/s speed=0.293x elapsed=0:00:06.25    \nframe=   60 fps=8.9 q=60.0 size=       1KiB time=00:00:02.00 bitrate=   2.5kbits/s speed=0.296x elapsed=0:00:06.76    \nframe=   65 fps=8.9 q=48.0 size=       1KiB time=00:00:02.16 bitrate=   2.3kbits/s speed=0.298x elapsed=0:00:07.28    \nframe=   70 fps=9.0 q=60.0 size=       1KiB time=00:00:02.33 bitrate=   2.2kbits/s speed=0.299x elapsed=0:00:07.80    \nframe=   75 fps=9.0 q=58.0 size=       1KiB time=00:00:02.50 bitrate=   2.0kbits/s speed=0.301x elapsed=0:00:08.31    \nframe=   80 fps=9.1 q=58.0 size=       1KiB time=00:00:02.66 bitrate=   1.9kbits/s speed=0.302x elapsed=0:00:08.82    \nframe=   85 fps=9.1 q=59.0 size=       1KiB time=00:00:02.83 bitrate=   1.8kbits/s speed=0.303x elapsed=0:00:09.34    \nframe=   90 fps=9.1 q=59.0 size=       1KiB time=00:00:03.00 bitrate=   1.7kbits/s speed=0.304x elapsed=0:00:09.85    \nframe=   95 fps=9.2 q=60.0 size=       1KiB time=00:00:03.16 bitrate=   1.6kbits/s speed=0.305x elapsed=0:00:10.37    \nframe=   99 fps=9.1 q=47.0 size=       1KiB time=00:00:03.30 bitrate=   1.5kbits/s speed=0.303x elapsed=0:00:10.89    \nframe=  104 fps=9.1 q=60.0 size=       1KiB time=00:00:03.46 bitrate=   1.5kbits/s speed=0.304x elapsed=0:00:11.40    \nframe=  109 fps=9.1 q=61.0 size=       1KiB time=00:00:03.63 bitrate=   1.4kbits/s speed=0.305x elapsed=0:00:11.92    \nframe=  114 fps=9.2 q=61.0 size=       1KiB time=00:00:03.80 bitrate=   1.3kbits/s speed=0.305x elapsed=0:00:12.44    \nframe=  118 fps=9.1 q=62.0 size=       1KiB time=00:00:03.93 bitrate=   1.3kbits/s speed=0.304x elapsed=0:00:12.95    \nframe=  123 fps=9.1 q=45.0 size=       1KiB time=00:00:04.10 bitrate=   1.2kbits/s speed=0.304x elapsed=0:00:13.47    \nframe=  126 fps=9.0 q=63.0 size=       1KiB time=00:00:04.20 bitrate=   1.2kbits/s speed= 0.3x elapsed=0:00:13.98    \nframe=  126 fps=8.7 q=63.0 size=       1KiB time=00:00:04.20 bitrate=   1.2kbits/s speed=0.29x elapsed=0:00:14.49    \nframe=  126 fps=8.4 q=63.0 size=       1KiB time=00:00:04.20 bitrate=   1.2kbits/s speed=0.28x elapsed=0:00:15.01    \nframe=  126 fps=8.1 q=63.0 size=       1KiB time=00:00:04.20 bitrate=   1.2kbits/s speed=0.27x elapsed=0:00:15.53    \nframe=  126 fps=7.9 q=63.0 size=       1KiB time=00:00:04.20 bitrate=   1.2kbits/s speed=0.262x elapsed=0:00:16.04    \n[out#0/webm @ 000001cc48d30b00] video:998KiB audio:0KiB subtitle:0KiB other streams:0KiB global headers:0KiB muxing overhead: 0.172405%\nframe=  150 fps=9.3 q=61.0 Lsize=    1000KiB time=00:00:05.00 bitrate=1638.0kbits/s speed=0.311x elapsed=0:00:16.07    \n",
  "seconds": 16.235175371170044,
  "probe_out": {}
}